<?xml version="1.0" standalone="no"?>
<!DOCTYPE svg PUBLIC "-//W3C//DTD SVG 20010904//EN"
 "http://www.w3.org/TR/2001/REC-SVG-20010904/DTD/svg10.dtd">
<svg version="1.0" xmlns="http://www.w3.org/2000/svg"
 width="300.000000pt" height="142.000000pt" viewBox="0 0 300.000000 142.000000"
 preserveAspectRatio="xMidYMid meet">
<metadata>
Created by potrace 1.10, written by Peter Selinger 2001-2011
</metadata>
<g transform="translate(0.000000,142.000000) scale(0.100000,-0.100000)"
fill="#000000" stroke="none">
<path d="M1377 1069 c-63 -15 -136 -58 -201 -118 -83 -77 -115 -87 -222 -71
-137 21 -238 -8 -334 -97 -226 -208 -130 -572 170 -649 132 -34 252 4 377 119
84 77 111 85 218 67 60 -10 89 -10 154 0 109 18 146 7 225 -71 36 -36 86 -72
125 -92 59 -28 75 -32 156 -32 81 0 97 4 156 32 80 39 159 120 197 200 23 50
27 71 27 148 0 80 -3 97 -31 155 -39 82 -106 150 -190 191 -56 28 -77 33 -142
33 -43 0 -100 -3 -128 -8 -71 -12 -115 5 -188 73 -78 72 -118 97 -191 116 -65
16 -120 18 -178 4z m245 -47 c40 -20 82 -50 106 -77 75 -86 119 -98 278 -80
129 14 222 -22 312 -120 72 -78 95 -145 90 -256 -3 -68 -10 -97 -31 -142 -33
-65 -114 -144 -183 -176 -66 -32 -173 -39 -248 -17 -74 22 -96 36 -176 112
-85 80 -121 92 -225 74 -62 -11 -92 -11 -158 0 -113 17 -152 6 -223 -66 -105
-104 -194 -141 -318 -131 -134 12 -238 85 -297 211 -38 82 -46 154 -25 236 30
115 99 199 206 249 57 26 103 30 285 21 72 -4 128 21 167 72 94 124 291 164
440 90z"/>
<path d="M1650 772 c-24 -3 -25 -6 -25 -67 l0 -65 35 1 c30 2 31 3 8 6 -22 3
-28 10 -28 29 0 17 5 24 20 24 11 0 20 5 20 10 0 6 -9 10 -20 10 -33 0 -26 38
8 42 15 2 23 5 17 8 -5 3 -21 4 -35 2z"/>
<path d="M900 705 l0 -65 33 1 c23 1 26 3 10 6 -31 6 -33 53 -3 53 11 0 20 5
20 10 0 6 -9 10 -20 10 -29 0 -27 37 3 43 16 3 13 5 -10 6 l-33 1 0 -65z"/>
<path d="M1006 755 c-46 -46 -18 -108 52 -113 23 -2 42 1 42 5 0 5 -15 7 -33
5 -38 -4 -59 15 -59 53 0 38 21 57 59 53 18 -2 33 0 33 4 0 14 -78 8 -94 -7z"/>
<path d="M1136 748 c-34 -48 -7 -108 48 -108 47 0 70 21 70 63 0 48 -18 67
-65 67 -28 0 -42 -6 -53 -22z m88 -4 c36 -35 7 -98 -43 -92 -54 6 -52 108 3
108 14 0 32 -7 40 -16z"/>
<path d="M1290 705 c0 -36 4 -65 9 -65 4 0 6 24 4 53 l-4 52 22 -35 c13 -19
24 -37 26 -40 2 -2 8 1 12 8 5 8 -3 24 -21 44 -15 16 -28 34 -28 39 0 5 -4 9
-10 9 -6 0 -10 -28 -10 -65z"/>
<path d="M1395 705 c0 -45 4 -65 13 -65 8 0 12 20 12 65 0 46 -4 65 -13 65 -9
0 -12 -19 -12 -65z"/>
<path d="M1458 705 c-2 -39 1 -65 7 -65 6 0 9 20 7 48 l-3 47 20 -25 c11 -14
21 -28 21 -32 0 -19 19 -5 30 22 21 52 33 48 28 -9 -4 -39 -2 -51 9 -51 10 0
13 15 11 65 -3 76 -15 83 -44 23 l-21 -42 -24 42 c-13 23 -27 42 -31 42 -3 0
-8 -29 -10 -65z"/>
<path d="M1720 706 c0 -37 4 -66 10 -66 6 0 10 27 10 60 0 47 3 60 15 60 18 0
20 -36 3 -43 -10 -4 -10 -7 -1 -14 6 -5 16 -21 22 -36 6 -15 15 -27 21 -27 6
0 5 10 -2 28 -6 15 -11 43 -12 62 -1 32 -4 35 -33 38 l-33 3 0 -65z"/>
<path d="M1841 744 c-12 -15 -21 -32 -21 -39 0 -7 9 -24 21 -39 16 -20 29 -26
60 -26 21 0 39 4 39 8 0 5 -14 7 -30 4 -39 -6 -60 13 -60 53 0 40 21 59 60 53
16 -3 30 -1 30 4 0 4 -18 8 -39 8 -31 0 -44 -6 -60 -26z"/>
<path d="M1970 705 l0 -65 38 1 c30 2 32 3 10 6 -22 3 -28 10 -28 29 0 17 5
24 20 24 11 0 20 5 20 10 0 6 -9 10 -20 10 -33 0 -26 38 8 43 22 3 20 4 -10 6
l-38 1 0 -65z"/>
<path d="M1075 505 c0 -36 3 -65 8 -65 4 0 7 11 7 25 0 18 5 25 20 25 11 0 20
5 20 10 0 6 -9 10 -20 10 -15 0 -20 7 -20 24 0 19 6 26 28 29 23 3 22 4 -8 6
l-35 1 0 -65z"/>
<path d="M1180 568 c0 -2 -11 -32 -24 -66 -18 -46 -21 -62 -11 -62 7 0 16 11
19 25 4 16 13 25 26 25 13 0 24 -10 30 -25 5 -14 14 -25 19 -25 13 0 -33 123
-48 128 -6 2 -11 2 -11 0z"/>
<path d="M1265 553 c-4 -13 3 -26 24 -45 41 -37 41 -62 1 -56 -16 3 -30 1 -30
-4 0 -5 17 -8 38 -6 50 4 56 37 13 69 -41 30 -41 54 -1 46 17 -4 30 -2 30 3 0
18 -67 11 -75 -7z"/>
<path d="M1370 505 c0 -37 4 -65 10 -65 6 0 10 14 10 30 0 28 3 30 35 30 32 0
35 -2 35 -30 0 -16 5 -30 10 -30 6 0 10 28 10 65 0 37 -4 65 -10 65 -5 0 -10
-11 -10 -25 0 -22 -4 -25 -35 -25 -31 0 -35 3 -35 25 0 14 -4 25 -10 25 -6 0
-10 -28 -10 -65z"/>
<path d="M1520 505 c0 -37 4 -65 10 -65 6 0 10 28 10 65 0 37 -4 65 -10 65 -6
0 -10 -28 -10 -65z"/>
<path d="M1586 548 c-9 -12 -16 -33 -16 -45 0 -57 92 -87 124 -41 36 51 7 108
-54 108 -29 0 -43 -6 -54 -22z m98 -20 c14 -41 -6 -78 -42 -78 -21 0 -32 7
-40 25 -16 35 -15 45 5 67 25 27 65 20 77 -14z"/>
<path d="M1740 505 c0 -38 4 -65 10 -65 7 0 8 18 4 50 -4 28 -4 50 -1 50 3 0
22 -22 42 -50 20 -27 40 -50 45 -50 4 0 8 29 9 65 1 42 -3 65 -10 65 -7 0 -10
-16 -7 -45 2 -25 1 -45 -3 -45 -3 0 -20 20 -39 45 -19 25 -37 45 -42 45 -4 0
-8 -29 -8 -65z"/>
<path d="M1407 250 c-5 -18 0 -20 37 -20 35 0 42 3 43 21 2 21 1 21 -12 3 -14
-18 -14 -18 -15 1 -1 19 -2 19 -9 1 -7 -18 -8 -18 -14 -3 -9 23 -24 21 -30 -3z"/>
</g>
</svg>
