<?xml version="1.0" standalone="no"?>
<!DOCTYPE svg PUBLIC "-//W3C//DTD SVG 20010904//EN"
 "http://www.w3.org/TR/2001/REC-SVG-20010904/DTD/svg10.dtd">
<svg version="1.0" xmlns="http://www.w3.org/2000/svg"
 width="300.000000pt" height="145.000000pt" viewBox="0 0 300.000000 145.000000"
 preserveAspectRatio="xMidYMid meet">
<metadata>
Created by potrace 1.10, written by Peter Selinger 2001-2011
</metadata>
<g transform="translate(0.000000,145.000000) scale(0.100000,-0.100000)"
fill="#000000" stroke="none">
<path d="M920 934 c-79 -34 -81 -153 -3 -193 12 -6 59 -11 105 -11 l83 -1 100
-162 c119 -192 145 -224 190 -233 67 -12 133 53 122 120 -6 39 -274 461 -302
476 -28 15 -261 18 -295 4z m288 -51 c30 -28 152 -215 152 -232 0 -5 4 -11 9
-13 5 -1 30 -38 56 -82 61 -99 68 -149 25 -171 -16 -8 -36 -15 -44 -15 -19 0
-76 48 -76 65 0 7 -3 15 -7 17 -8 3 -83 114 -83 122 0 3 -25 43 -55 90 -62 96
-80 106 -192 106 -55 0 -64 3 -82 26 -25 32 -26 52 -3 80 26 30 35 32 159 33
110 1 113 0 141 -26z"/>
<path d="M1473 935 c-17 -7 -39 -26 -49 -40 -35 -53 -24 -81 109 -292 149
-237 168 -260 211 -269 39 -7 86 14 110 48 35 50 24 79 -126 315 -77 123 -148
228 -157 232 -33 17 -67 19 -98 6z m85 -44 c12 -11 22 -23 22 -28 0 -5 8 -18
18 -29 10 -10 21 -26 25 -34 4 -8 31 -53 61 -100 140 -218 146 -228 146 -262
0 -27 -6 -37 -31 -52 -48 -28 -72 -15 -129 69 -27 41 -50 78 -50 83 0 5 -7 16
-17 23 -9 8 -21 25 -27 39 -6 14 -37 64 -69 111 -66 100 -77 135 -50 165 33
38 67 43 101 15z"/>
<path d="M1824 936 c-42 -18 -64 -52 -64 -98 0 -29 18 -66 88 -177 48 -77 89
-140 92 -140 3 0 44 63 93 140 70 112 87 148 87 178 0 76 -76 125 -146 96 -29
-12 -39 -12 -69 1 -41 17 -42 17 -81 0z m246 -52 c37 -38 23 -75 -88 -241 -20
-29 -39 -53 -44 -53 -10 0 -78 104 -78 120 0 5 -4 10 -8 10 -4 0 -20 22 -35
50 -30 55 -28 97 4 126 17 15 28 16 84 8 46 -7 70 -7 86 2 28 15 52 8 79 -22z"/>
</g>
</svg>
